Coordinates
version=1
nRows=37
nColumns=38
inDegrees=no

Units are S.I. units (second, meters, Newtons, ...)
If the header above contains a line with 'inDegrees', this indicates whether rotational values are in degrees (yes) or radians (no).

endheader
time	pelvis_tilt	pelvis_list	pelvis_rotation	pelvis_tx	pelvis_ty	pelvis_tz	hip_flexion_r	hip_adduction_r	hip_rotation_r	knee_angle_r	ankle_angle_r	subtalar_angle_r	mtp_angle_r	hip_flexion_l	hip_adduction_l	hip_rotation_l	knee_angle_l	ankle_angle_l	subtalar_angle_l	mtp_angle_l	lumbar_extension	lumbar_bending	lumbar_rotation	arm_flex_r	arm_add_r	arm_rot_r	elbow_flex_r	pro_sup_r	wrist_flex_r	wrist_dev_r	arm_flex_l	arm_add_l	arm_rot_l	elbow_flex_l	pro_sup_l	wrist_flex_l	wrist_dev_l
1.29	1.04812	1.5295	-2.64802	0.928342	0.314356	0.90048	-0.297548	-0.0532138	-0.233277	0.286902	0.340386	0	0	0.399842	0.0115031	-0.224476	0.143538	0.108321	0	0	-0.17179	-0.0634672	-0.0936177	-0.27103	-0.233421	0.0565386	0.787631	0.454485	0	0	-0.172132	-0.275118	0.0720266	0.616528	1.4373	0	0
1.3	1.06647	1.52532	-2.67097	0.929351	0.300672	0.899563	-0.297917	-0.0655894	-0.233986	0.319362	0.335863	0	0	0.403385	0.0152717	-0.228529	0.176195	0.102256	0	0	-0.167485	-0.0712578	-0.0876154	-0.273957	-0.231791	0.0564881	0.780999	0.454295	0	0	-0.175459	-0.276216	0.0675942	0.615181	1.43945	0	0
1.31	1.08792	1.52035	-2.69634	0.930643	0.286885	0.89899	-0.296575	-0.079304	-0.233976	0.354496	0.32655	0	0	0.402725	0.0204572	-0.233289	0.197241	0.0789324	0	0	-0.163027	-0.079586	-0.0826133	-0.276435	-0.229951	0.056283	0.773174	0.453755	0	0	-0.178865	-0.276953	0.0631922	0.613635	1.44009	0	0
1.32	1.12673	1.51503	-2.73807	0.932188	0.273101	0.898653	-0.29093	-0.0946945	-0.234795	0.394874	0.312661	0	0	0.403183	0.0249327	-0.244688	0.220372	0.0538507	0	0	-0.157437	-0.0885995	-0.0789347	-0.277872	-0.227436	0.0558127	0.762658	0.453841	0	0	-0.182591	-0.277341	0.0572058	0.612263	1.44107	0	0
1.33	1.14649	1.50882	-2.7586	0.933919	0.259188	0.898715	-0.28985	-0.10912	-0.234589	0.431082	0.294382	0	0	0.403309	0.0288876	-0.256268	0.249623	0.0410513	0	0	-0.152916	-0.0980554	-0.0774454	-0.279626	-0.224068	0.0544418	0.752609	0.456572	0	0	-0.187099	-0.278958	0.0533731	0.6128	1.44024	0	0
1.34	1.15846	1.50397	-2.77036	0.935774	0.245456	0.899191	-0.274633	-0.124153	-0.233555	0.484318	0.261908	0	0	0.406471	0.0304301	-0.264689	0.288033	0.0439166	0	0	-0.148811	-0.10576	-0.0771162	-0.280485	-0.220717	0.0539558	0.742306	0.45887	0	0	-0.191468	-0.28084	0.0514238	0.61419	1.43636	0	0
1.35	1.15387	1.49779	-2.76371	0.937788	0.231603	0.900144	-0.262281	-0.139802	-0.232987	0.536935	0.224095	0	0	0.408349	0.0332731	-0.268756	0.329881	0.0555323	0	0	-0.146466	-0.114176	-0.0789722	-0.281177	-0.217119	0.0553463	0.731761	0.459181	0	0	-0.196344	-0.283834	0.0517002	0.617246	1.42855	0	0
1.36	1.15783	1.49067	-2.76437	0.940031	0.217812	0.901419	-0.244405	-0.157959	-0.232758	0.59634	0.173695	0	0	0.407957	0.0386667	-0.26968	0.367479	0.0691473	0	0	-0.144063	-0.123419	-0.0818081	-0.282105	-0.213514	0.0583736	0.720998	0.458678	0	0	-0.200611	-0.28745	0.0542383	0.620384	1.41862	0	0
1.37	1.18749	1.48302	-2.78922	0.942537	0.204167	0.902718	-0.219427	-0.178781	-0.232654	0.661498	0.111387	0	0	0.40505	0.0475533	-0.269454	0.39524	0.0813065	0	0	-0.139776	-0.133625	-0.0866118	-0.283426	-0.210443	0.0642067	0.711063	0.459076	0	0	-0.205807	-0.291933	0.0579475	0.625621	1.40771	0	0
1.38	1.23907	1.47552	-2.83462	0.945249	0.190681	0.903857	-0.189144	-0.200343	-0.231365	0.728006	0.0389857	0	0	0.39959	0.0592627	-0.268951	0.411558	0.0904541	0	0	-0.133122	-0.143975	-0.0929521	-0.285547	-0.207809	0.0709729	0.703525	0.457646	0	0	-0.211631	-0.297484	0.0639061	0.632859	1.39462	0	0
1.39	1.29797	1.4691	-2.8867	0.948045	0.177374	0.904796	-0.155259	-0.220075	-0.226335	0.793294	-0.0371722	0	0	0.391707	0.0717873	-0.268516	0.41872	0.0981705	0	0	-0.124778	-0.152905	-0.0997721	-0.288894	-0.205909	0.0774515	0.699518	0.454836	0	0	-0.217606	-0.303165	0.0688651	0.641568	1.38495	0	0
1.4	1.35454	1.4636	-2.93645	0.950877	0.16427	0.905573	-0.119304	-0.237612	-0.217931	0.856638	-0.108455	0	0	0.381694	0.0844331	-0.267745	0.420064	0.107221	0	0	-0.115856	-0.160115	-0.106414	-0.292946	-0.204865	0.0831193	0.698202	0.452014	0	0	-0.222881	-0.308692	0.0733964	0.650229	1.3779	0	0
1.41	1.40322	1.45817	-2.97867	0.953704	0.151348	0.906343	-0.0821269	-0.253685	-0.207166	0.917305	-0.178783	0	0	0.369508	0.0974916	-0.266142	0.417703	0.11716	0	0	-0.107299	-0.166551	-0.112876	-0.297108	-0.204703	0.0888417	0.698783	0.44941	0	0	-0.227996	-0.314561	0.0782195	0.66013	1.37124	0	0
1.42	1.42882	1.45274	-2.99806	0.956448	0.138639	0.907365	-0.0466438	-0.268057	-0.196611	0.973867	-0.245449	0	0	0.353962	0.11043	-0.262497	0.412882	0.125745	0	0	-0.10153	-0.172181	-0.119586	-0.300825	-0.205032	0.0936383	0.701213	0.44746	0	0	-0.232282	-0.320845	0.0833079	0.670788	1.36341	0	0
1.43	1.42297	1.44804	-2.9868	0.958977	0.126294	0.908857	-0.0150198	-0.279483	-0.185936	1.02457	-0.30574	0	0	0.334617	0.12184	-0.256218	0.406991	0.132206	0	0	-0.100464	-0.176288	-0.125929	-0.303062	-0.205602	0.0969574	0.704393	0.446693	0	0	-0.234217	-0.327254	0.0887957	0.680502	1.35523	0	0
1.44	1.38637	1.44433	-2.9457	0.961243	0.114257	0.910854	0.0109224	-0.287417	-0.175478	1.06812	-0.34323	0	0	0.311524	0.130759	-0.248349	0.401258	0.137643	0	0	-0.104389	-0.178492	-0.131558	-0.303866	-0.206265	0.0986975	0.707736	0.44683	0	0	-0.233563	-0.333789	0.0952083	0.688824	1.34556	0	0
1.45	1.32263	1.44111	-2.87908	0.963221	0.102449	0.913322	0.0320536	-0.292161	-0.163859	1.10698	-0.341309	0	0	0.283823	0.137078	-0.24117	0.393809	0.142742	0	0	-0.112973	-0.178945	-0.136581	-0.303042	-0.207194	0.0993757	0.711083	0.449119	0	0	-0.231682	-0.340635	0.103584	0.697096	1.32751	0	0
1.46	1.26232	1.43948	-2.81654	0.965012	0.0908486	0.915818	0.0541934	-0.293615	-0.151606	1.14534	-0.301582	0	0	0.256934	0.140174	-0.235612	0.386487	0.147997	0	0	-0.121166	-0.177178	-0.142224	-0.300523	-0.208078	0.099095	0.712335	0.453274	0	0	-0.22925	-0.345153	0.10504	0.701857	1.32114	0	0
1.47	1.20286	1.43901	-2.75481	0.966727	0.0795132	0.918349	0.0768968	-0.292383	-0.140174	1.1797	-0.246496	0	0	0.230059	0.141091	-0.230952	0.377656	0.152626	0	0	-0.129213	-0.173646	-0.148339	-0.297136	-0.209218	0.0994705	0.712347	0.458809	0	0	-0.225659	-0.348633	0.104394	0.704196	1.32095	0	0
1.48	1.14651	1.43959	-2.69505	0.968505	0.0684405	0.920865	0.0996318	-0.288976	-0.130597	1.20705	-0.194749	0	0	0.203588	0.140583	-0.226452	0.367337	0.156764	0	0	-0.136514	-0.168688	-0.155377	-0.293661	-0.210437	0.100297	0.711525	0.46504	0	0	-0.220853	-0.351569	0.103174	0.705078	1.32268	0	0
1.49	1.09319	1.44053	-2.6379	0.970319	0.0574764	0.923377	0.121864	-0.284466	-0.122577	1.22636	-0.154745	0	0	0.176437	0.139632	-0.222864	0.353873	0.160341	0	0	-0.142855	-0.163121	-0.162573	-0.29058	-0.211564	0.10077	0.70964	0.469274	0	0	-0.21527	-0.354067	0.101819	0.704559	1.32575	0	0
1.5	1.04244	1.44188	-2.5833	0.972145	0.0466423	0.925838	0.143794	-0.279054	-0.115637	1.23838	-0.125018	0	0	0.149151	0.138263	-0.219923	0.338144	0.163463	0	0	-0.148398	-0.156904	-0.169429	-0.287918	-0.212935	0.102742	0.707383	0.471759	0	0	-0.208847	-0.356214	0.101046	0.702934	1.33072	0	0
1.51	0.99428	1.4439	-2.53071	0.973989	0.0359051	0.928161	0.164713	-0.272399	-0.110503	1.24344	-0.0993709	0	0	0.122618	0.136239	-0.21675	0.321651	0.166483	0	0	-0.152896	-0.149896	-0.176532	-0.286218	-0.214449	0.10597	0.705811	0.472981	0	0	-0.202153	-0.358206	0.100376	0.701135	1.33671	0	0
1.52	0.946857	1.44666	-2.47831	0.975814	0.0252694	0.930327	0.184842	-0.264897	-0.107775	1.24282	-0.0734618	0	0	0.0971633	0.133316	-0.212873	0.305026	0.16919	0	0	-0.156449	-0.142035	-0.183951	-0.285584	-0.216141	0.109632	0.705436	0.471695	0	0	-0.195366	-0.359943	0.0989832	0.699486	1.34376	0	0
1.53	0.897063	1.44941	-2.42399	0.977556	0.0146716	0.932415	0.20409	-0.257502	-0.10696	1.23758	-0.0468979	0	0	0.0715406	0.129928	-0.208124	0.287399	0.171272	0	0	-0.159746	-0.133854	-0.19058	-0.285809	-0.217859	0.113592	0.705786	0.470532	0	0	-0.188191	-0.361181	0.0969632	0.697848	1.3503	0	0
1.54	0.844912	1.45252	-2.36657	0.979287	0.00424406	0.934388	0.222617	-0.250203	-0.109123	1.22772	-0.0223859	0	0	0.0468191	0.125709	-0.201931	0.269864	0.173208	0	0	-0.162936	-0.124958	-0.197718	-0.286515	-0.219018	0.116662	0.706973	0.470982	0	0	-0.180745	-0.362408	0.0947994	0.696611	1.35685	0	0
1.55	0.791168	1.45597	-2.30698	0.980976	-0.00597059	0.936196	0.240566	-0.242603	-0.113062	1.21316	-0.000829755	0	0	0.0234662	0.120749	-0.19515	0.252923	0.17513	0	0	-0.165825	-0.115625	-0.205348	-0.287052	-0.219837	0.120144	0.70841	0.471125	0	0	-0.173284	-0.363853	0.0926751	0.696478	1.36225	0	0
1.56	0.735057	1.45913	-2.24447	0.982624	-0.0160666	0.937873	0.256941	-0.235143	-0.118812	1.19356	0.0177909	0	0	0.000525289	0.115523	-0.187801	0.236016	0.176317	0	0	-0.168763	-0.106232	-0.213276	-0.287556	-0.219957	0.122405	0.70998	0.47175	0	0	-0.165967	-0.365699	0.0909374	0.697719	1.36595	0	0
1.57	0.676489	1.46169	-2.17886	0.984282	-0.0260655	0.939451	0.271455	-0.228368	-0.126565	1.16946	0.034433	0	0	-0.0226699	0.110314	-0.179426	0.218398	0.176314	0	0	-0.172045	-0.0968184	-0.221675	-0.28783	-0.219641	0.123631	0.711594	0.47462	0	0	-0.158631	-0.367519	0.0888659	0.699473	1.36921	0	0
1.58	0.617121	1.46362	-2.1118	0.985949	-0.0360181	0.940888	0.284082	-0.222476	-0.136308	1.14156	0.0503884	0	0	-0.0460377	0.105216	-0.170169	0.200181	0.175603	0	0	-0.175522	-0.0875185	-0.230489	-0.288116	-0.218956	0.12393	0.713531	0.480128	0	0	-0.151587	-0.369435	0.0868843	0.701874	1.37221	0	0
1.59	0.560931	1.46509	-2.04781	0.987566	-0.045941	0.942108	0.295466	-0.217473	-0.147304	1.11031	0.0668501	0	0	-0.068918	0.100332	-0.160803	0.182086	0.174829	0	0	-0.178647	-0.0787241	-0.239382	-0.288209	-0.21793	0.123508	0.715903	0.48723	0	0	-0.14509	-0.371417	0.0847694	0.705151	1.37452	0	0
1.6	0.512292	1.46629	-1.99164	0.989104	-0.05578	0.943062	0.306128	-0.213596	-0.15909	1.07578	0.0822604	0	0	-0.090777	0.0958926	-0.150906	0.164863	0.173868	0	0	-0.181164	-0.070836	-0.247913	-0.288045	-0.216311	0.121055	0.718868	0.495401	0	0	-0.138506	-0.373878	0.0836815	0.709097	1.3746	0	0
1.61	0.473163	1.46728	-1.94546	0.99055	-0.0655183	0.943738	0.316224	-0.210961	-0.171905	1.03862	0.0948397	0	0	-0.111509	0.0920604	-0.140963	0.148741	0.172893	0	0	-0.183224	-0.0640665	-0.255494	-0.287636	-0.214011	0.116103	0.722047	0.502765	0	0	-0.131404	-0.376724	0.0839978	0.713209	1.37163	0	0
1.62	0.441675	1.46815	-1.90763	0.9919	-0.0752344	0.944135	0.325525	-0.209228	-0.185449	0.998565	0.10293	0	0	-0.131748	0.0889096	-0.131408	0.132418	0.171871	0	0	-0.185086	-0.0581157	-0.262517	-0.2867	-0.211321	0.109849	0.725531	0.512091	0	0	-0.124745	-0.379511	0.0839897	0.717883	1.36638	0	0
1.63	0.41805	1.46886	-1.87799	0.99319	-0.0849794	0.94428	0.33372	-0.208425	-0.199979	0.955777	0.107418	0	0	-0.151846	0.0864253	-0.121667	0.115929	0.170969	0	0	-0.18675	-0.0531065	-0.26971	-0.284775	-0.208721	0.104279	0.728917	0.523407	0	0	-0.118726	-0.38278	0.084466	0.723644	1.3612	0	0
1.64	0.400942	1.46959	-1.85534	0.994378	-0.0947484	0.944162	0.340964	-0.208193	-0.215368	0.910576	0.110733	0	0	-0.171496	0.084312	-0.112117	0.0999527	0.170538	0	0	-0.188011	-0.0489161	-0.276474	-0.282427	-0.206551	0.0993989	0.733025	0.531961	0	0	-0.112759	-0.38631	0.0854398	0.729825	1.35575	0	0
1.65	0.390486	1.47073	-1.84015	0.995443	-0.104511	0.943741	0.34807	-0.208031	-0.231187	0.86329	0.113994	0	0	-0.190197	0.0826199	-0.103147	0.0846224	0.170769	0	0	-0.188601	-0.0454513	-0.282322	-0.279746	-0.205099	0.0964835	0.737988	0.538422	0	0	-0.106556	-0.389753	0.0865041	0.735196	1.35113	0	0
